<?xml version="1.0" encoding="iso-8859-1"?>
<!-- Generator: Adobe Illustrator 19.0.0, SVG Export Plug-In . SVG Version: 6.00 Build 0)  -->
<svg version="1.1" id="Capa_1" xmlns="http://www.w3.org/2000/svg" xmlns:xlink="http://www.w3.org/1999/xlink" x="0px" y="0px"
	 viewBox="0 0 468.293 468.293" style="enable-background:new 0 0 468.293 468.293;" xml:space="preserve">
<path style="fill:#44C4A1;" d="M408.921,243.804c6.358-0.671,12.435,3.151,15.136,7.884c2.701,4.733,2.717,10.165,2.321,15.374
	c-1.064,13.991-4.719,27.755-8.363,41.455c-1.232,4.632-2.464,9.264-3.696,13.896c-0.847,3.186-1.703,6.394-3.272,9.393
	c-2.288,4.374-6.093,8.214-10.859,10.96c-2.881,1.66-6.269,2.954-9.795,2.831c-5.127-0.178-9.461-3.327-12.039-6.94
	c-7.356-10.308-3.315-23.287,0.912-34.701c5.333-14.399,13.255-48.414,16.97-53.041
	C398.866,247.641,404.094,244.314,408.921,243.804z"/>
<path style="fill:#31978C;" d="M391.967,302.395c-1.863,7.288-2.797,14.782-3.431,22.278c1.194-1.277,2.389-2.556,3.522-3.889
	c8.045-9.472,12.527-21.354,14.802-33.45c0.784-4.168,3.768-14.16,1.553-17.998c-1.787-3.096-2.519-0.075-3.705,2.178
	c-1.609,3.056-3.179,6.134-4.657,9.256C396.755,287.734,393.878,294.92,391.967,302.395z"/>
<path style="fill:#44C4A1;" d="M76.369,345.528c6.358,0.671,12.435-3.151,15.136-7.884c2.701-4.733,2.717-10.165,2.321-15.374
	c-1.064-13.991-4.719-27.755-8.363-41.455c-1.232-4.632-2.464-9.264-3.696-13.896c-0.847-3.186-1.703-6.394-3.272-9.393
	c-2.288-4.374-6.093-8.214-10.859-10.96c-2.881-1.66-6.269-2.954-9.795-2.831c-5.127,0.178-9.461,3.327-12.039,6.939
	c-7.356,10.308-3.315,23.287,0.912,34.701c5.333,14.399,13.255,48.414,16.97,53.041C66.314,341.692,71.542,345.019,76.369,345.528z"
	/>
<path style="fill:#31978C;" d="M59.415,286.938c-1.863-7.288-2.797-14.782-3.431-22.278c1.194,1.277,2.389,2.556,3.522,3.889
	c8.045,9.472,12.527,21.354,14.802,33.45c0.784,4.168,3.768,14.16,1.553,17.998c-1.787,3.096-2.519,0.075-3.705-2.178
	c-1.609-3.057-3.179-6.134-4.657-9.256C64.203,301.599,61.326,294.412,59.415,286.938z"/>
<path style="fill:#44C4A1;" d="M409.467,175.795c-4.963,0.139-9.965-2.039-13.282-7.555c-5.222-8.684-7.928-18.164-7.08-28.336
	c0.648-7.752,2.613-15.211,3.129-22.92H89.288c1.575,18.93-5.12,39.096-16.561,53.683c-2.062,2.629-5.077,4.019-8.311,4.447
	c0.788,30.652,4.115,68.176,14.042,99.051c0,0,12.849,58.485,6.9,91.842c0,0-9.811,39.243,44.307,58.928
	c0,0,43.927,20.445,59.687,31.775c3.988,2.912,8.545,4.937,13.355,6.14c9.242,2.279,23.736,5.443,34.244,5.443
	c10.571,0,25.001-3.165,34.242-5.443c4.811-1.202,9.369-3.228,13.357-6.14c15.76-11.33,59.687-31.775,59.687-31.775
	c54.118-19.685,44.307-58.928,44.307-58.928c-5.886-33.356,6.899-91.842,6.899-91.842
	C405.295,243.519,408.647,206.32,409.467,175.795z"/>
<path style="fill:#3A556A;" d="M426.564,123.469c-9.13-4.649-18.259-9.298-27.388-13.947c-4.605-2.344-9.302-4.757-12.88-8.486
	c-6.518-6.793-8.288-16.862-8.218-26.275c0.069-9.414,0.631-19.144-0.479-28.493c-13.155-1.438-26.595,0.463-39.603-1.971
	c-13.006-2.434-26.377-11.024-28.269-24.121c-7.83,0.859-14.541,5.705-21.243,9.843c-9.713,5.997-21.164,10.916-32.296,8.386
	c-4.509-1.025-9.042-3.605-10.707-7.919c-0.873-2.261-0.87-4.752-0.855-7.176c0.048-7.769,0.096-15.539,0.143-23.309
	c-3.761,6.278-10.244,10.337-16.486,14.159c-5.017,3.072-10.035,6.144-15.052,9.216c-9.113,5.58-18.412,11.24-28.788,13.8
	c-10.375,2.561-23.013,3.242-31.319-3.481c-18.047,7.649-44.904,12.041-64.496,11.437c0.982,14.111,1.183,28.276,0.601,42.408
	c-0.306,7.408-1.632,16.11-8.22,19.512c-7.07,3.65-23.308,3.167-23.308,3.167l3.606,20.125c0,0,5.219,11.872,3.726,18.187
	s-6.796,12.131-5.848,18.55c2.47,16.721-5.012,35.438,6.038,49.426c0.236-1.064,0.612-2.124,1.021-3.123
	c3.466-8.463,19.097-18.967,23.94-26.725c1.482-2.374,3.102-4.786,5.484-6.257c8.167-5.045,18.308,3.632,27.882,2.932
	c1.239-10.982,0.335-22.201-2.646-32.843c15.751,2.767,26.915,16.354,40.147,25.335c10.816,7.341,23.325,11.71,35.673,15.999
	c-1.759-23.164,6.935-46.924,23.232-63.48c16.37,16.989,25.698,40.566,25.384,64.157c12.648-12.356,20.731-29.283,22.393-46.887
	c6.758,14.445,9.627,30.689,8.227,46.575c8.682-6.717,17.365-13.434,26.047-20.152c15.281-11.822,32.153-24.21,51.473-24.085
	c-0.732,13.716-3.294,27.333-7.599,40.376c7.418-10.114,23.444-11.62,33.659-4.342c10.215,7.278,30.419,21.433,27.353,33.595
	c5.376-13.758,2.482-47.735,2.501-51.155c0.046-8.119-6.846-15.151-6.46-23.261C403.458,132.199,416.04,126.598,426.564,123.469z"/>
<path style="fill:#64798A;" d="M78.158,171.593c-0.078-1.795-0.211-3.618-0.428-5.458c0.307-0.72,0.783-1.702,1.157-2.482
	c1.392-2.889,3.127-6.486,4.157-10.857c2.103-8.869-0.566-18.996-3.181-25.949c3.729-0.84,6.947-1.958,9.64-3.347
	c17.129-8.847,17.954-28.675,18.219-35.191c0.349-8.402,0.428-16.875,0.241-25.346c15.05-1.353,30.6-4.519,43.632-8.92
	c5.645,2.304,12.013,3.464,19.038,3.464c5.76,0,11.899-0.795,18.243-2.362c13.243-3.265,24.28-10.022,34.022-15.984l4.946-3.03
	c0.12,0.337,0.241,0.681,0.374,1.021c3.723,9.658,12.423,16.695,23.864,19.3c3.332,0.756,6.79,1.142,10.284,1.142
	c11.23,0,22.955-3.871,35.842-11.827c0,0,2.886-1.807,2.934-1.838c8.567,9.995,21.334,16.288,33.45,18.556
	c8.272,1.551,16.08,1.678,24.015,1.678h1.133c-0.018,1.241-0.151,8.245-0.169,10.465c-0.127,16.644,4.374,29.844,13.375,39.222
	c5.495,5.73,11.803,9.085,17.026,11.751c-3.874,5.724-5.284,11.589-5.525,16.692c-0.404,8.495,2.585,15.27,4.766,20.216
	c0.627,1.413,1.566,3.543,1.705,4.302c-0.024,0.151,0.006,1.13,0.078,2.609c-0.072-0.048-0.711-0.503-0.711-0.503
	c-5.627-4.01-12.369-6.615-19.43-7.567c0.518-4.121,0.886-8.26,1.109-12.414l1.03-19.364l-19.394-0.127
	c-26.365,0-47.855,16.306-62.242,27.434c-1.687-6.549-3.976-12.947-6.862-19.111l-28.799-61.552l-5.826,61.7
	c-4.531-8.118-10.092-15.677-16.586-22.415l-13.182-13.685L206.77,115.36c-13.471,13.682-22.701,31.353-26.636,50.114
	c-3.073-1.5-5.995-3.136-8.688-4.961c-3.284-2.232-6.657-5.007-10.23-7.944c-9.989-8.218-21.316-17.532-37.107-20.307l-28.961-5.088
	l7.935,28.311c0.458,1.624,0.85,3.271,1.181,4.937c-0.898-0.072-1.813-0.111-2.747-0.111c-5.663,0-10.905,1.464-15.574,4.35
	C82.593,166.725,80.062,169.246,78.158,171.593z"/>
<g>
	<path style="fill:#E56353;" d="M199.381,280.744c0,5.042-0.673,9.814-1.882,14.319c-4.437,16.873-16.671,28.973-31.058,28.973
		c-18.15,0-32.872-19.36-32.872-43.292c0-11.563,3.428-21.982,9.008-29.713c5.983-8.336,14.453-13.512,23.864-13.512
		C184.659,237.52,199.381,256.88,199.381,280.744z"/>
	<path style="fill:#E56353;" d="M345.739,280.778c0,20.456-16.527,37.051-36.983,37.051c-9.482,0-18.22-3.59-24.722-9.483
		c-7.587-6.773-12.328-16.595-12.328-27.568c0-20.456,16.595-37.05,37.05-37.05c3.794,0,7.384,0.542,10.838,1.626
		C334.767,249.959,345.739,264.115,345.739,280.778z"/>
</g>
<path style="fill:#64798A;" d="M153.933,217.886c7.559-0.016,15.118-0.033,22.677-0.049c0.78-5.158-1.264-10.987-5.851-13.472
	c-2.627-1.423-5.719-1.628-8.701-1.802c-6.046-0.353-12.15-0.704-18.129,0.264s-11.905,3.379-16.048,7.797
	c-5.107,5.445-6.885,13.126-8.467,20.422c-1.68,7.745-0.074,20.292-1.754,28.037c2.549,1.496,2.68-4.52,4.708-6.669
	c2.029-2.15,3.062-5.02,4.297-7.705c6.927-15.048,22.147-25.946,38.625-27.655L153.933,217.886z"/>
<path style="fill:#3A556A;" d="M133.337,241.02c-10.78,10.731-17.677,24.728-23.222,38.891c4.383-11.315,8.766-22.63,13.148-33.946
	c2.804-7.24,5.643-14.548,9.962-21c4.319-6.452,10.305-12.069,17.675-14.51c6.928-2.295,14.804-1.549,21.179,2.004
	c6.171,3.44,11.363,9.808,12.742,16.815c-8.947-2.684-14.333-5.708-23.93-3.558C150.402,228.066,140.949,233.442,133.337,241.02z"/>
<path style="fill:#64798A;" d="M318.146,217.886c-7.559-0.016-15.118-0.033-22.677-0.049c-0.78-5.158,1.264-10.987,5.851-13.472
	c2.627-1.423,5.719-1.628,8.701-1.802c6.046-0.353,12.15-0.704,18.129,0.264s11.905,3.379,16.048,7.797
	c5.107,5.445,6.885,13.126,8.467,20.422c1.68,7.745,0.074,20.292,1.754,28.037c-2.549,1.496-2.68-4.52-4.708-6.669
	c-2.029-2.15-3.061-5.02-4.297-7.705c-6.927-15.048-22.147-25.946-38.625-27.655L318.146,217.886z"/>
<path style="fill:#3A556A;" d="M338.741,241.02c10.78,10.731,17.677,24.728,23.222,38.891c-4.383-11.315-8.766-22.63-13.148-33.946
	c-2.804-7.24-5.643-14.548-9.962-21c-4.319-6.452-10.305-12.069-17.675-14.51c-6.928-2.295-14.804-1.549-21.179,2.004
	c-6.171,3.44-11.363,9.808-12.742,16.815c8.947-2.684,14.332-5.708,23.93-3.558C321.676,228.066,331.129,233.442,338.741,241.02z"/>
<path style="fill:#3EA69B;" d="M237.102,289.769c0.633-2.479,2.081-5.595,4.496-5.138c0.92,0.174,1.659,0.874,2.303,1.583
	c6.947,7.651,8.583,19.108,7.722,29.618c-0.861,10.51-3.845,20.731-4.75,31.237c-0.241,2.805-0.361,5.728-1.638,8.208
	c-2.568,4.989-8.677,6.382-14.035,7.246c-3.176,0.512-6.422,1.024-9.586,0.438c-3.165-0.586-6.291-2.479-7.573-5.559
	c-3.863-9.282,4.283-20.205,8.38-27.723C229.1,317.423,233.634,303.343,237.102,289.769z"/>
<path style="fill:#64798A;" d="M222.613,352.371c-1.332-0.365-2.724-0.837-3.603-1.902c-1.307-1.582-1.055-3.913-0.521-5.895
	c1.046-3.892,2.887-7.516,4.713-11.108c0.821-1.613,1.297-5.884,0.816-6.475c-1.282,0.878-2.566,1.762-3.873,2.596
	c-6.016,3.841-11.198,9.567-12.689,16.547c-1.49,6.98,1.572,15.15,8.084,18.07c2.473,1.109,5.223,1.419,7.927,1.596
	c7.204,0.472,14.54,0.081,21.438-2.047c6.898-2.128,13.354-6.089,17.704-11.85C249.326,353.925,235.573,355.925,222.613,352.371z"/>
<path style="fill:#EBF0F3;" d="M166.441,237.52c-9.411,0-17.881,5.176-23.864,13.512c-1.278,4.572-1.949,9.479-1.949,14.588
	c0,14.544,5.485,27.385,13.865,35.221c5.369,5.021,11.918,8.004,19.006,8.004c0.843,0,1.668-0.091,2.496-0.174
	c8.482-0.844,16.113-5.889,21.504-13.607c1.209-4.504,1.882-9.277,1.882-14.319C199.381,256.88,184.659,237.52,166.441,237.52z"/>
<path style="fill:#31978C;" d="M179.849,406.245c1.844,0.058,3.713,0.114,5.508-0.314c1.794-0.428,3.436-1.323,5.055-2.207
	c7.532-4.118,15.064-8.236,22.595-12.354c3.785-2.07,7.599-4.151,11.704-5.476c6.345-2.048,13.186-2.223,19.502-4.359
	c3.989-1.348,7.681-3.45,11.605-4.975c9.716-3.776,21.214-3.72,30.156,1.638c8.942,5.358,14.561,16.459,12.101,26.588
	c-1.006,4.143-3.21,7.887-5.533,11.463c-2.284,3.516-4.727,6.956-7.668,9.945c-3.1,3.152-6.711,5.757-10.427,8.151
	c-5.396,3.476-11.139,6.571-17.379,8.073c-10.659,2.565-22.026,0.254-31.992-4.315c-9.966-4.569-18.772-11.279-27.482-17.938
	c-5.589-4.273-11.533-8.7-18.513-9.581c-2.13-0.269-19.176,0.635-17.576-3.205C162.97,403.864,177.134,406.159,179.849,406.245z"/>
<path style="fill:#3A556A;" d="M288.641,409.471c-2.097,5.49-6.416,9.686-11.166,13.264c-1.666,1.296-3.454,2.468-5.182,3.64
	c-1.666,1.11-3.332,2.221-5.059,3.27c-3.393,1.974-6.971,3.64-10.735,4.195c-1.172,0.247-2.344,0.37-3.579,0.309
	c-4.195-0.062-8.266-1.666-12.092-3.332c-0.185-0.062-0.309-0.123-0.493-0.185c-7.958-3.332-15.979-6.663-23.937-9.994
	c-3.023-1.296-23.074-7.465-23.382-10.241c-0.37-3.393,16.842-9.994,19.742-11.352c0.371-0.185,0.803-0.37,1.173-0.555
	c3.701-1.727,7.465-3.393,11.29-4.997c3.517-1.481,7.034-2.838,10.612-4.195c0.432-0.185,0.926-0.308,1.357-0.494
	c3.949-1.481,7.958-2.838,12.093-3.949h0.062c3.023-0.802,6.108-1.481,9.192-1.974c4.75-0.802,9.5-1.172,14.189-0.864
	c3.454,0.185,6.848,0.74,10.18,1.666c2.221,0.617,4.504,1.542,5.861,3.393c1.419,1.974,1.542,4.627,1.604,7.033
	C290.43,399.292,290.554,404.659,288.641,409.471z"/>
<g>
	<path style="fill:#E1E6E9;" d="M249.343,384.855h-0.062c-4.135,1.111-8.144,2.468-12.093,3.949
		c2.784,3.906,6.563,11.29,8.761,15.745l3.831-1.072C253.389,393.561,251.164,387.642,249.343,384.855z"/>
	<path style="fill:#E1E6E9;" d="M272.724,382.017c-4.689-0.308-9.439,0.062-14.189,0.864c2.619,3.049,6.57,10.523,9.118,15.596
		l5.081-1.421C274.965,389.87,274.076,384.963,272.724,382.017z"/>
	<path style="fill:#E1E6E9;" d="M277.475,422.735c-1.666,1.296-3.454,2.468-5.182,3.64c-1.666,1.11-3.332,2.221-5.059,3.27
		c-2.097-2.776-4.504-8.267-2.283-17.891l3.701-1.542C270.936,413.728,274.575,419.034,277.475,422.735z"/>
	<path style="fill:#E1E6E9;" d="M256.499,433.84c-1.172,0.247-2.344,0.37-3.579,0.309c-4.195-0.062-8.266-1.666-12.092-3.332
		c-0.493-2.961-0.617-6.601,0-11.105l4.812-2.283C248.725,422.673,253.352,430.324,256.499,433.84z"/>
	<path style="fill:#E1E6E9;" d="M225.219,393.492l-11.29,4.997c2.531,3.499,5.629,9.015,7.702,12.861l4.742-1.327
		C229.464,401.055,226.973,395.761,225.219,393.492z"/>
</g>
<g>
	<path style="fill:#D15241;" d="M184.911,319.251c-0.627-0.992-1.783-1.603-2.048-2.779c-0.16-0.711,0.057-1.468-0.053-2.191
		c-0.276-1.814-2.252-2.454-3.688-3.371c-1.078-0.688-2.027-1.629-3.126-2.242c-0.828,0.082-1.653,0.174-2.496,0.174
		c-7.088,0-13.636-2.983-19.006-8.004c-0.444,0.31-0.891,0.75-1.417,1.499c-2.226,3.169-3.769,3.006-7.176,3.145
		c-1.481,0.061-3.227,1.213-2.965,2.832c0.114,0.704,0.604,1.344,0.493,2.048c-0.079,0.503-0.456,0.906-0.514,1.413
		c-0.079,0.695,0.451,1.272,0.936,1.72c1.475,1.36,2.992,2.669,4.537,3.938v24.343c0,3.351,2.399,6.067,5.359,6.067
		c2.958,0,5.357-2.716,5.357-6.067v-10.263c0.865,2.034,2.667,3.466,4.795,3.466c2.958,0,5.357-2.716,5.359-6.065v3.628
		c0,3.351,2.399,6.067,5.357,6.067s5.357-2.716,5.357-6.067v-5.776c0.169-0.056,0.348-0.059,0.517-0.119
		c1.484-0.527,2.977-1.265,3.973-2.595C185.455,322.721,185.806,320.667,184.911,319.251z"/>
	<path style="fill:#D15241;" d="M325.987,319.251c-0.627-0.992-1.783-1.603-2.048-2.779c-0.16-0.711,0.057-1.468-0.053-2.191
		c-0.276-1.814-2.252-2.454-3.688-3.371c-1.078-0.688-2.027-1.629-3.126-2.242c-0.828,0.082-1.653,0.174-2.496,0.174
		c-7.088,0-13.636-2.983-19.006-8.004c-0.444,0.31-0.891,0.75-1.417,1.499c-2.226,3.169-3.769,3.006-7.176,3.145
		c-1.481,0.061-3.227,1.213-2.965,2.832c0.114,0.704,0.604,1.344,0.493,2.048c-0.079,0.503-0.456,0.906-0.514,1.413
		c-0.079,0.695,0.451,1.272,0.936,1.72c1.475,1.36,2.992,2.669,4.537,3.938v24.343c0,3.351,2.399,6.067,5.359,6.067
		c2.958,0,5.357-2.716,5.357-6.067v-10.263c0.865,2.034,2.667,3.466,4.795,3.466c2.958,0,5.357-2.716,5.359-6.065v3.628
		c0,3.351,2.399,6.067,5.357,6.067c2.958,0,5.357-2.716,5.357-6.067v-5.776c0.169-0.056,0.348-0.059,0.517-0.119
		c1.484-0.527,2.977-1.265,3.973-2.595C326.532,322.721,326.883,320.667,325.987,319.251z"/>
</g>
<path style="fill:#31978C;" d="M190.959,255.853c-2.981-2.123-5.992-4.262-9.321-5.634c-4.356-1.796-9.099-2.207-13.75-1.998
	c-13.415,0.604-26.586,6.398-36.642,16.118c2.224-11.01,11.192-19.104,20.828-23.138c5.338-2.235,11.017-3.495,16.73-3.711
	c7.341-0.279,14.907,1.25,21.09,5.581c5.184,3.631,8.989,13.941,7.628,21.268C195.553,261.073,194.083,258.077,190.959,255.853z"/>
<g>
	<circle style="fill:#3A556A;" cx="170.003" cy="273.171" r="16.197"/>
	<circle style="fill:#3A556A;" cx="170.003" cy="273.171" r="16.197"/>
</g>
<g>
	<circle style="fill:#EBF0F3;" cx="173.081" cy="265.085" r="8.098"/>
	<path style="fill:#EBF0F3;" d="M332.057,272.988c0,20.456-16.595,37.051-37.05,37.051c-3.86,0-7.518-0.61-10.972-1.693
		c-7.587-6.773-12.328-16.595-12.328-27.568c0-20.456,16.595-37.05,37.05-37.05c3.794,0,7.384,0.542,10.838,1.626
		C327.248,252.126,332.057,261.948,332.057,272.988z"/>
</g>
<circle style="fill:#3A556A;" cx="301.88" cy="276.886" r="17.783"/>
<circle style="fill:#EBF0F3;" cx="305.264" cy="267.988" r="8.891"/>
<path style="fill:#31978C;" d="M282.401,255.854c3.257-2.123,6.547-4.262,10.185-5.634c4.759-1.796,9.942-2.207,15.024-1.998
	c14.657,0.604,29.048,6.398,40.036,16.118c-2.43-11.01-12.228-19.104-22.757-23.138c-5.833-2.235-12.037-3.495-18.28-3.711
	c-8.021-0.279-16.287,1.249-23.044,5.581c-5.664,3.631-9.822,13.941-8.335,21.268C277.382,261.073,278.988,258.078,282.401,255.854z
	"/>
<g>
</g>
<g>
</g>
<g>
</g>
<g>
</g>
<g>
</g>
<g>
</g>
<g>
</g>
<g>
</g>
<g>
</g>
<g>
</g>
<g>
</g>
<g>
</g>
<g>
</g>
<g>
</g>
<g>
</g>
</svg>
