<?xml version="1.0" encoding="iso-8859-1"?>
<!-- Generator: Adobe Illustrator 19.0.0, SVG Export Plug-In . SVG Version: 6.00 Build 0)  -->
<svg version="1.1" id="Capa_1" xmlns="http://www.w3.org/2000/svg" xmlns:xlink="http://www.w3.org/1999/xlink" x="0px" y="0px"
	 viewBox="0 0 468.293 468.293" style="enable-background:new 0 0 468.293 468.293;" xml:space="preserve">
<path style="fill:#3A556A;" d="M413.507,202.384c2.637-9.916,3.831-20.356,3.347-30.606c-0.905-19.153-3.595-38.846-11.554-56.29
	c-3.591-7.87-8.5-15.056-13.383-22.196c-11.407-16.68-23.062-33.444-37.511-47.677c-7.051-6.945-14.776-13.252-23.291-18.324
	c-4.242-2.526-8.906-4.136-13.181-6.478c-4.568-2.504-10.535-5.792-14.82-8.982c-11.408-8.49-19.947-9.642-33.86-10.756
	c-15.473-1.239-40.832-1.423-56.325-0.463c-12.911,0.8-25.994,2.432-37.459,8.318c-8.542,4.386-18.427,7.921-26.359,12.898
	c-8.258,5.183-17.273,8.632-24.943,14.873c-16.411,13.352-29.282,30.483-41.312,47.726c-2.054,2.944-4.085,5.903-6.111,8.866
	c-4.884,7.141-9.793,14.326-13.383,22.196c-7.959,17.445-11.036,37.137-11.94,56.29c-0.485,10.249,1.097,20.69,3.734,30.606
	c2.984,11.219,9.764,21.087,13.239,32.163c5.987,19.084,1.681,39.653-1.725,59.362c-2.435,14.089-3.22,31.281,8.287,39.767
	c5.293,3.903,12.105,4.956,18.136,7.577c6.032,2.621,11.893,8.165,11.005,14.681c-0.452,3.318-2.573,6.126-4.054,9.129
	c-5.108,10.351-2.537,22.667,0.139,33.896c2.427,10.186,5.138,20.903,12.443,28.404c5.279,5.422,12.379,8.482,19.574,10.443
	c5.534,1.508,11.202,2.378,16.831,3.436c0.27,0.051,0.542,0.102,0.817,0.092c0.428-0.015,0.836-0.175,1.24-0.32
	c3.758-1.351,7.975-1.523,11.75-0.221c2.52,0.869,4.816,2.411,6.55,4.438c1.781,2.083,2.44,5.012,4.606,6.76
	c16.083,12.974,30.05,18.986,60.196,15.164c0.076,0,0.209,0,0.286,0c31.671,4.015,45.478-2.806,62.649-17.169
	c0.552-0.461,1.398-0.717,1.89-1.208c0.407-0.406,0.574-1.057,0.843-1.579c0.623-1.21,1.404-2.338,2.31-3.352
	c1.813-2.029,4.135-3.61,6.711-4.497c2.689-0.925,5.626-1.083,8.409-0.518c1.42,0.289,2.803,0.766,4.093,1.426
	c1.284,0.657,2.402,0.228,3.807-0.023c5.427-0.967,10.862-2.075,16.069-3.92c5.475-1.941,10.7-4.761,14.782-8.954
	c7.305-7.502,10.016-18.219,12.443-28.404c2.676-11.229,5.247-23.545,0.139-33.896c-1.482-3.003-3.603-5.811-4.055-9.129
	c-0.888-6.516,4.973-12.06,11.005-14.681c6.031-2.621,12.844-3.673,18.137-7.577c11.507-8.486,10.721-25.677,8.286-39.767
	c-3.405-19.709-7.711-40.278-1.725-59.362C403.743,223.47,410.524,213.602,413.507,202.384z"/>
<path style="fill:#44C4A1;" d="M403.064,201.023c0,0-14.902,41.255-16.235,60.217c-0.242,2.908,0.363,5.815,1.575,8.481
	c5.513,12.237,21.809,56.764-26.776,66.638c-4.907,1.03-9.087,4.604-10.42,9.45c-1.999,7.027-2.059,18.659,7.27,35.561
	c1.03,1.938,1.757,3.998,1.939,6.179c1.212,12.601,1.696,55.249-49.252,41.013c-5.21-1.454-10.662,0.909-13.388,5.513
	c-7.391,12.359-25.201,26.958-63.609,26.958c-38.468,0-56.279-14.6-63.669-26.958c-2.726-4.604-8.179-6.966-13.328-5.513
	c-51.009,14.236-50.524-28.412-49.312-41.013c0.182-2.181,0.909-4.241,1.999-6.179c9.269-16.902,9.208-28.533,7.27-35.561
	c-1.394-4.846-5.513-8.42-10.481-9.45c-48.585-9.874-32.289-54.401-26.776-66.638c1.212-2.666,1.817-5.573,1.575-8.481
	c-1.272-18.962-16.175-60.217-16.175-60.217c-21.506-46.95,13.994-95.353,13.994-95.353c5.21-10.177,10.783-19.264,16.72-27.443
	c2.06-3.029,4.241-5.876,6.482-8.663C158.806-0.647,234.167,8.136,234.167,8.136s75.241-8.784,131.641,61.368
	c2.847,3.514,5.634,7.27,8.36,11.208c5.21,7.512,10.238,15.811,14.902,24.959C389.07,105.671,424.57,154.074,403.064,201.023z"/>
<path style="fill:#3A556A;" d="M365.852,168.31c-6.38-4.756-14.915-5.095-22.872-5.245c-5.354-0.101-10.742-0.199-16.028,0.655
	c-4.321,0.698-8.518,2.026-12.619,3.557c-22.664,8.465-42.853,23.443-57.526,42.68c8.514,9.736,20.031,16.809,32.565,20.001
	c7.883,2.007,16.07,2.502,24.203,2.649c3.686,0.066,7.417,0.058,10.998-0.819c3.338-0.818,6.45-2.368,9.44-4.064
	c4.689-2.662,9.207-5.758,12.77-9.806c6.953-7.9,9.621-18.579,12.067-28.815c1.245-5.213,0.662-8.814,0.124-13.894
	c-0.214-2.022-0.158-2.542,1.439-4.074C361.023,170.55,364.989,167.667,365.852,168.31z"/>
<path style="fill:#D5D6DB;" d="M354.355,191.049c-1.459,8.377-6.96,18.588-21.173,29.216c0,0-33.342,21.964-69.436-10.961
	c0,0,6.585-7.127,16.838-15.463c16.421-13.337,42.22-29.8,65.435-25.09c2.417,0.5,4.501,2.001,5.668,4.168
	C353.521,176.587,355.813,183.005,354.355,191.049z"/>
<path style="fill:#EBF0F3;" d="M354.355,191.049c-2.751,2.918-6.085,5.876-10.128,8.919c0,0-29.842,19.672-63.643-6.127
	c16.421-13.337,42.22-29.8,65.435-25.09c2.417,0.5,4.501,2.001,5.668,4.168C353.521,176.587,355.813,183.005,354.355,191.049z"/>
<path style="fill:#3EA69B;" d="M362.441,152.105c-6.304-6.868-16.811-9.007-22.364-16.495c5.702,1.349,11.249,3.348,16.5,5.946
	c3.749-7.672,7.499-15.344,11.248-23.016c1.811,6.304-0.686,12.955-1.045,19.505c-0.316,5.773,1.091,11.629,3.997,16.627
	c2.401,4.13,3.727,8.155,3.48,12.925c-0.171,3.305-0.028,6.25-2.625,8.302c-1.887,1.491-5.651,4.323-7.981,3.315
	c0.937-4.59,3.974-8.229,3.919-13.508C367.519,160.758,365.814,155.779,362.441,152.105z"/>
<path style="fill:#3A556A;" d="M102.44,168.31c6.38-4.756,14.915-5.095,22.871-5.245c5.354-0.101,10.742-0.199,16.028,0.655
	c4.321,0.698,8.518,2.026,12.619,3.557c22.664,8.465,42.853,23.443,57.526,42.68c-8.514,9.736-20.031,16.809-32.565,20.001
	c-7.883,2.007-16.07,2.502-24.203,2.649c-3.686,0.066-7.417,0.058-10.998-0.819c-3.338-0.818-6.45-2.368-9.44-4.064
	c-4.689-2.662-9.207-5.758-12.77-9.806c-6.953-7.9-9.621-18.579-12.067-28.815c-1.245-5.213-0.662-8.814-0.124-13.894
	c0.214-2.022,0.158-2.542-1.439-4.074C107.27,170.55,103.304,167.667,102.44,168.31z"/>
<path style="fill:#D5D6DB;" d="M113.938,191.049c1.459,8.377,6.96,18.588,21.173,29.216c0,0,33.342,21.964,69.436-10.961
	c0,0-6.585-7.127-16.838-15.463c-16.421-13.337-42.22-29.8-65.435-25.09c-2.417,0.5-4.501,2.001-5.668,4.168
	C114.771,176.587,112.479,183.005,113.938,191.049z"/>
<path style="fill:#EBF0F3;" d="M113.938,191.049c2.751,2.918,6.085,5.876,10.128,8.919c0,0,29.842,19.672,63.643-6.127
	c-16.421-13.337-42.22-29.8-65.435-25.09c-2.417,0.5-4.501,2.001-5.668,4.168C114.771,176.587,112.479,183.005,113.938,191.049z"/>
<path style="fill:#3EA69B;" d="M105.851,152.105c6.304-6.868,16.811-9.007,22.364-16.495c-5.702,1.349-11.249,3.348-16.5,5.946
	c-3.749-7.672-7.499-15.344-11.248-23.016c-1.811,6.304,0.686,12.955,1.045,19.505c0.316,5.773-1.091,11.629-3.997,16.627
	c-2.4,4.13-3.727,8.155-3.48,12.925c0.171,3.305,0.028,6.25,2.625,8.302c1.887,1.491,5.651,4.323,7.981,3.315
	c-0.937-4.59-3.975-8.229-3.919-13.508C100.773,160.758,102.479,155.779,105.851,152.105z"/>
<g>
	<path style="fill:#3A556A;" d="M262.826,213.747c-0.512-0.14-1.04-0.261-1.574-0.375c0.387-0.981,0.61-2.168-0.078-2.947
		c-0.727-0.822-2.141-0.803-2.787-1.669c-1.121,0.891-2.085,1.944-2.927,3.103c-1.518-0.649-2.851-1.607-3.757-3.238
		c-1.173-2.111-1.265-4.803-1.212-7.335c0.207-9.927,2.094-19.795,5.461-28.872c0.711-1.918,5.426-9.652,4.028-11.704
		c-1.556-2.285-5.927,5.282-6.879,6.887c-5.961,10.05-11.462,22.116-9.139,34.117c1.506,7.781,6.451,14.488,12.721,17.256
		c4.244,1.873,9.403,1.824,12.887-1.626C267.546,215.636,265.241,214.407,262.826,213.747z"/>
	<path style="fill:#3A556A;" d="M258.32,208.695c0.017,0.026,0.048,0.037,0.067,0.061c0.03-0.024,0.055-0.053,0.085-0.077
		C258.421,208.685,258.37,208.69,258.32,208.695z"/>
	<path style="fill:#3A556A;" d="M258.891,208.299c-0.153,0.111-0.271,0.264-0.42,0.381c0.467-0.048,0.934-0.096,1.401-0.144
		L258.891,208.299z"/>
	<path style="fill:#3A556A;" d="M215.193,167.597c-0.952-1.605-5.324-9.172-6.88-6.887c-1.397,2.052,3.317,9.786,4.028,11.704
		c3.366,9.077,5.253,18.945,5.46,28.872c0.053,2.532-0.039,5.225-1.212,7.335c-0.844,1.518-2.05,2.463-3.437,3.11
		c-0.348-0.556-0.656-1.142-1.115-1.609c-0.636,0-1.608-1.681-2.32-1.928c-0.726-0.251-2.664-0.162-2.18,0.965
		c0.54,1.258,1.08,2.515,1.62,3.773c-1.248,0.261-2.507,0.491-3.692,0.815c-2.415,0.66-4.72,1.889-6.743,3.597
		c3.484,3.449,8.643,3.499,12.887,1.626c6.271-2.768,11.215-9.475,12.721-17.256C226.655,189.713,221.154,177.647,215.193,167.597z"
		/>
</g>
<g>
	<path style="fill:#2F4859;" d="M374.168,80.712c-17.144-4.604-35.44-5.513-52.16-6.361l-67.971-3.392
		c-5.695-0.303-10.299-0.363-13.933,1.575c-1.696,0.969-3.272,2.423-4.968,3.938c-1.515,1.393-3.15,2.908-5.028,4.18
		c-8.724,5.815-19.689,5.089-27.746,4.544L95.984,78.228c2.06-3.029,4.241-5.876,6.482-8.663l100.502,6.603
		c8.724,0.545,16.417,0.727,22.051-3.09c1.333-0.909,2.605-2.06,3.998-3.332c1.999-1.818,4.119-3.756,6.785-5.21
		c6.179-3.271,13.085-2.968,18.659-2.666l68.031,3.453c13.812,0.667,28.715,1.394,43.315,4.18
		C368.655,73.018,371.442,76.774,374.168,80.712z"/>
	<circle style="fill:#2F4859;" cx="172.581" cy="55.39" r="10.415"/>
	<circle style="fill:#2F4859;" cx="149.885" cy="101.008" r="10.415"/>
	<circle style="fill:#2F4859;" cx="214.466" cy="54.54" r="10.415"/>
	<circle style="fill:#2F4859;" cx="263.948" cy="44.975" r="10.415"/>
	<circle style="fill:#2F4859;" cx="311.446" cy="48.553" r="10.415"/>
	<circle style="fill:#2F4859;" cx="210.419" cy="103.087" r="10.415"/>
	<circle style="fill:#2F4859;" cx="266.552" cy="86.99" r="10.415"/>
	<circle style="fill:#2F4859;" cx="313.719" cy="90.599" r="10.415"/>
</g>
<g>
	<path style="fill:#64798A;" d="M147.566,100.71l6.052,0.296c0.976-19.7,21.357-43.069,21.561-43.305l-4.544-4.005
		C169.736,54.718,148.649,78.879,147.566,100.71z"/>
	<path style="fill:#64798A;" d="M210.347,52.18c-0.426,1.29-10.365,31.787-2.813,52.292l5.685-2.094
		c-6.818-18.511,2.781-47.997,2.878-48.292L210.347,52.18z"/>
	<path style="fill:#64798A;" d="M261.302,45.501c0.083,0.248,8.123,24.954,2.429,40.406l5.685,2.094
		c6.431-17.446-2.003-43.311-2.363-44.406L261.302,45.501z"/>
	<path style="fill:#64798A;" d="M314.206,46.714l-5.75,1.905c0.083,0.248,8.123,24.954,2.431,40.406l5.685,2.094
		C323,73.673,314.567,47.809,314.206,46.714z"/>
</g>
<path style="fill:#3A556A;" d="M330.812,373.253c-0.875,4.498-1.687,9.059-2.562,13.619c-0.874,4.685-2.061,9.871-6.122,12.307
	c-4.685,2.874-10.37,0.625-15.243-2.499c-0.999-0.625-1.937-1.249-2.873-1.937c-17.118-12.432-35.047-25.238-55.788-28.799
	c-0.25-0.063-0.437-0.063-0.687-0.125c-6.247-0.999-12.619-1.124-18.929-0.312c-11.058,1.249-21.803,5.248-30.986,11.558
	c-10.745,7.434-20.678,18.491-33.797,18.491c-0.063,0-0.063,0-0.125,0c-2.686,0.063-5.56-0.5-7.809-2.124
	c-1.562-1-2.811-2.499-3.936-3.936c-13.119-17.242-15.243-42.169-5.248-61.347c0.812-1.562,1.687-3.061,2.749-4.498
	c0.75-1.124,1.624-2.186,2.624-3.124c7.809-7.496,20.241-7.247,30.548-3.936c10.245,3.311,19.554,9.184,30.049,11.745
	c13.869,3.311,28.362,0.562,42.356-2.249c0,0,19.929-7.559,34.922-17.055c4.498-2.874,9.246-5.872,14.556-6.31
	c5.31-0.375,10.495,1.874,14.681,5.123c2.686,2.124,4.998,4.623,6.809,7.434c4.748,6.747,7.309,15.056,7.997,23.239
	C335.06,350.139,332.936,361.759,330.812,373.253z"/>
<path style="fill:#3EA69B;" d="M255.271,388.759c4.691,1.773,8.726,4.898,12.683,7.979c4.249,3.308,8.498,6.616,12.747,9.923
	c4.681,3.644,9.787,8.087,9.946,14.017c0.114,4.265-2.541,8.238-6.001,10.733c-3.46,2.495-7.647,3.746-11.786,4.781
	c-24.956,6.242-51.239,6.127-76.603,1.834c-18.856-3.191-13.478-28.881,0.189-35.543
	C212.747,394.538,236.898,381.813,255.271,388.759z"/>
<g>
	
		<ellipse transform="matrix(-0.7177 -0.6964 0.6964 -0.7177 261.1946 674.5215)" style="fill:#64798A;" cx="267.329" cy="284.314" rx="8.76" ry="16.203"/>
	
		<ellipse transform="matrix(-0.6964 -0.7177 0.7177 -0.6964 140.7205 628.1976)" style="fill:#64798A;" cx="203.244" cy="284.332" rx="16.203" ry="8.76"/>
</g>
<g>
	<path style="fill:#3A556A;" d="M284.254,287.684c0,0,0.164-1.426,0-3.291V287.684z"/>
	<path style="fill:#3A556A;" d="M263.969,270.072c-0.983,0.511-1.88,1.208-2.594,2.024c-2.809,3.215-9.967,12.383-11.609,23.982
		c-0.723,5.112-4.537,9.402-9.893,10.455c-3.184,0.626-6.975,0.7-11.081-0.57c-4.155-1.285-7.215-4.644-8.192-8.662
		c-2.226-9.151-8.547-27.639-23.706-30.525c-3.325-0.633-6.769,0.946-8.461,3.718c-1.622,2.659-3.122,6.409-2.454,10.609v4.907
		c0.337-2.56,1.341-4.847,2.454-6.613c1.691-2.684,5.135-4.212,8.461-3.599c15.159,2.794,21.481,20.693,23.706,29.553
		c0.977,3.889,4.037,7.142,8.192,8.386c4.106,1.23,7.897,1.158,11.081,0.552c5.356-1.019,9.169-5.173,9.893-10.122
		c1.641-11.23,8.8-20.106,11.609-23.219c0.714-0.791,1.611-1.465,2.594-1.96c16.759-8.447,19.828,0.22,20.285,5.404v-5.339
		C284.254,279.054,286.758,258.207,263.969,270.072z"/>
	<path style="fill:#3A556A;" d="M185.98,289.668v-3.658C185.825,287.181,185.77,288.392,185.98,289.668z"/>
</g>
<g>
	<path style="fill:#64798A;" d="M298.823,261.868c-3.697-7.081-14.445-12.464-26.275-13.533c-3.346-0.302-6.518-1.507-9.347-3.321
		c-7.727-4.956-18.092-8.552-29.034-8.552s-21.307,3.597-29.034,8.552c-2.828,1.814-6,3.019-9.347,3.321
		c-11.83,1.068-22.577,6.451-26.275,13.533c-4.216,8.075,1.089,17.682,12.407,22.468c0,0-12.382-12.53-8.426-19.559
		c3.299-5.862,12.582-6.957,23.031-7.048c3.905-0.034,7.685-1.146,11.074-3.087c7.174-4.109,16.618-7.05,26.57-7.05
		c9.952,0,19.396,2.941,26.57,7.05c3.388,1.941,7.169,3.053,11.074,3.087c10.449,0.09,19.732,1.186,23.031,7.048
		c3.956,7.029-8.426,19.559-8.426,19.559C297.734,279.55,303.039,269.943,298.823,261.868z"/>
	<path style="fill:#64798A;" d="M303.615,349.423c-5.258,0.455-9.603-1.428-9.78-1.508l-3.418-1.501l2.322-3.025
		c5.879-7.657,0.849-21.473,0.795-21.613l-0.504-1.351l0.676-1.219c3.373-6.073,7.727-9.38,12.936-9.831
		c7.81-0.676,14.477,5.559,14.758,5.825l0.959,0.91l-0.021,1.38c-0.459,26.411-11.924,31.343-18.716,31.931
		C303.62,349.423,303.62,349.423,303.615,349.423z"/>
</g>
<path style="fill:#EBF0F3;" d="M319.786,317.34c0,0-14.403-13.67-23.907,3.426c0,0,5.789,15.433-1.183,24.512
	C294.696,345.278,319.115,356.046,319.786,317.34z"/>
<path style="fill:#64798A;" d="M282.92,356.204c-3.878,0.336-7.12-1.046-9.375-3.992l-0.711-0.926l0.085-1.196
	c0.263-3.7,0.106-14.138-3.697-17.938l-2.051-2.049l1.886-2.088c0.422-0.466,10.468-11.458,19.841-12.27
	c3.304-0.286,6.184,0.67,8.563,2.852l0.467,0.428l0.256,0.614c3.175,7.593,5.999,24.289-6.051,33.15
	C291.871,352.968,287.624,355.797,282.92,356.204z"/>
<path style="fill:#EBF0F3;" d="M270.884,330.068c0,0,15.93-17.619,24.995-9.302c0,0,8.257,19.739-5.197,29.637
	c0,0-10.058,6.765-15.224,0.009C275.458,350.412,276.522,335.693,270.884,330.068z"/>
<path style="fill:#64798A;" d="M257.514,361.183c-8.903,0.771-16.4-1.398-16.719-1.493l-1.758-0.517l-2.331-23.279l2.699-0.055
	c0.423-0.009,0.869-0.036,1.339-0.077c9.987-0.865,29.029-8.306,29.221-8.378l0.965-0.379l0.952,0.492
	c7.521,3.863,6.412,20.091,6.11,23.303l-0.096,1.035l-0.678,0.7C272.304,357.564,265.676,360.476,257.514,361.183z"/>
<path style="fill:#EBF0F3;" d="M239.538,338.677l1.829,18.267c0,0,21.521,6.344,34.091-6.533c0,0,1.6-17.167-4.574-20.343
	C270.884,330.068,249.473,338.472,239.538,338.677z"/>
<path style="fill:#64798A;" d="M178.698,360.242c-6.796,0.589-19.044-2.29-24.738-28.168c-0.074-0.338-0.368-1.013-0.298-1.353
	c0.066-0.319,0.572-0.794,0.762-1.059c0.222-0.309,5.54-7.583,13.347-8.259c5.208-0.451,10.144,2.051,14.67,7.44l0.904,1.077
	l-0.227,1.42c-0.023,0.147-2.229,14.589,5.074,21.105l2.879,2.569l-3.056,2.067C187.852,357.189,183.958,359.786,178.698,360.242z"
	/>
<path style="fill:#EBF0F3;" d="M160.199,327.659c4.397-3.498,12.131-6.774,20.411,3.09c0,0-2.626,16.161,6.029,23.887
	c0,0-20.008,13.523-29.047-18.51C156.719,333.03,157.682,329.662,160.199,327.659z"/>
<path style="fill:#64798A;" d="M200.386,363.352c-4.709,0.408-9.447-1.643-9.645-1.726c-13.691-6.688-14.233-23.582-12.62-31.589
	l0.13-0.647l0.376-0.501c1.902-2.553,4.545-3.987,7.852-4.273c9.373-0.812,21.423,8.267,21.933,8.652l2.271,1.728l-1.612,2.366
	c-2.984,4.382-1.003,14.918-0.075,18.259l0.323,1.161l-0.515,1.038C207.175,361.101,204.263,363.016,200.386,363.352
	L200.386,363.352z"/>
<path style="fill:#EBF0F3;" d="M207.023,335.599c0,0-19.154-14.581-26.412-4.85c0,0-4.196,20.818,10.991,28.235
	c0,0,11.229,4.922,14.964-2.606C206.566,356.378,202.598,342.095,207.023,335.599z"/>
<path style="fill:#64798A;" d="M226.343,363.883c-8.161,0.707-15.256-1.011-21.085-5.115l-0.806-0.572l-0.302-1.001
	c-0.93-3.106-5.244-18.864,1.379-23.951l0.841-0.648l1.026,0.207c0.201,0.038,20.4,4.081,30.382,3.217
	c0.47-0.041,0.914-0.09,1.332-0.154l2.663-0.409l2.331,23.279l-1.625,0.81C242.183,359.693,235.241,363.112,226.343,363.883z"/>
<path style="fill:#EBF0F3;" d="M239.538,338.677l1.829,18.267c0,0-19.892,9.931-34.802-0.567c0,0-4.98-16.597,0.457-20.779
	C207.023,335.599,229.734,340.181,239.538,338.677z"/>
<g>
	<path style="fill:#E56353;" d="M228.608,365.507c-11.058,1.249-21.803,5.248-30.986,11.558
		c-10.745,7.434-20.678,18.491-33.797,18.491c-0.063,0-0.063,0-0.125,0C170.072,379.376,196.248,366.944,228.608,365.507z"/>
	<path style="fill:#E56353;" d="M306.885,396.68c-0.999-0.625-1.937-1.249-2.873-1.937c-17.118-12.432-35.047-25.238-55.788-28.799
		C278.148,368.755,301.7,381.062,306.885,396.68z"/>
</g>
<g>
</g>
<g>
</g>
<g>
</g>
<g>
</g>
<g>
</g>
<g>
</g>
<g>
</g>
<g>
</g>
<g>
</g>
<g>
</g>
<g>
</g>
<g>
</g>
<g>
</g>
<g>
</g>
<g>
</g>
</svg>
